<mxfile host="app.diagrams.net" agent="Mozilla/5.0 (Windows NT 10.0; Win64; x64) AppleWebKit/537.36 (KHTML, like Gecko) Chrome/130.0.0.0 Safari/537.36" version="24.8.1">
  <diagram name="Page-1" id="XjKNdMhh2U0nfwWWohRo">
    <mxGraphModel dx="4075" dy="1305" grid="1" gridSize="10" guides="1" tooltips="1" connect="1" arrows="1" fold="1" page="1" pageScale="1" pageWidth="850" pageHeight="1100" math="0" shadow="0">
      <root>
        <mxCell id="0" />
        <mxCell id="1" parent="0" />
        <mxCell id="abfaj3LT7T33ILpD5jAN-125" style="edgeStyle=orthogonalEdgeStyle;rounded=0;orthogonalLoop=1;jettySize=auto;html=1;entryX=0.5;entryY=0;entryDx=0;entryDy=0;" edge="1" parent="1" source="MJ7d8MGrej0oFUK3ACLP-1" target="abfaj3LT7T33ILpD5jAN-124">
          <mxGeometry relative="1" as="geometry" />
        </mxCell>
        <mxCell id="MJ7d8MGrej0oFUK3ACLP-1" value="Початок" style="ellipse;whiteSpace=wrap;html=1;" parent="1" vertex="1">
          <mxGeometry x="120" y="90" width="130" height="50" as="geometry" />
        </mxCell>
        <mxCell id="MJ7d8MGrej0oFUK3ACLP-2" value="&lt;font style=&quot;font-size: 24px;&quot;&gt;Main&lt;/font&gt;" style="text;html=1;align=center;verticalAlign=middle;resizable=0;points=[];autosize=1;strokeColor=none;fillColor=none;" parent="1" vertex="1">
          <mxGeometry x="140" y="30" width="80" height="40" as="geometry" />
        </mxCell>
        <mxCell id="MJ7d8MGrej0oFUK3ACLP-3" value="&lt;font style=&quot;font-size: 24px;&quot;&gt;Show books list functions&lt;/font&gt;" style="text;html=1;align=center;verticalAlign=middle;resizable=0;points=[];autosize=1;strokeColor=none;fillColor=none;" parent="1" vertex="1">
          <mxGeometry x="535" y="25" width="290" height="40" as="geometry" />
        </mxCell>
        <mxCell id="abfaj3LT7T33ILpD5jAN-70" value="" style="edgeStyle=orthogonalEdgeStyle;rounded=0;orthogonalLoop=1;jettySize=auto;html=1;" edge="1" parent="1" source="abfaj3LT7T33ILpD5jAN-59" target="abfaj3LT7T33ILpD5jAN-69">
          <mxGeometry relative="1" as="geometry" />
        </mxCell>
        <mxCell id="abfaj3LT7T33ILpD5jAN-59" value="showBooksList(books)" style="ellipse;whiteSpace=wrap;html=1;" vertex="1" parent="1">
          <mxGeometry x="500" y="95" width="140" height="50" as="geometry" />
        </mxCell>
        <mxCell id="abfaj3LT7T33ILpD5jAN-62" value="return" style="ellipse;whiteSpace=wrap;html=1;" vertex="1" parent="1">
          <mxGeometry x="505" y="290" width="130" height="50" as="geometry" />
        </mxCell>
        <mxCell id="abfaj3LT7T33ILpD5jAN-73" value="" style="edgeStyle=orthogonalEdgeStyle;rounded=0;orthogonalLoop=1;jettySize=auto;html=1;" edge="1" parent="1" source="abfaj3LT7T33ILpD5jAN-65" target="abfaj3LT7T33ILpD5jAN-72">
          <mxGeometry relative="1" as="geometry" />
        </mxCell>
        <mxCell id="abfaj3LT7T33ILpD5jAN-65" value="showBooksListAvailability(books, booksAvailability, isAvailable)" style="ellipse;whiteSpace=wrap;html=1;" vertex="1" parent="1">
          <mxGeometry x="695" y="95" width="240" height="60" as="geometry" />
        </mxCell>
        <mxCell id="abfaj3LT7T33ILpD5jAN-68" value="return true" style="ellipse;whiteSpace=wrap;html=1;" vertex="1" parent="1">
          <mxGeometry x="615" y="455" width="130" height="50" as="geometry" />
        </mxCell>
        <mxCell id="abfaj3LT7T33ILpD5jAN-71" value="" style="edgeStyle=orthogonalEdgeStyle;rounded=0;orthogonalLoop=1;jettySize=auto;html=1;" edge="1" parent="1" source="abfaj3LT7T33ILpD5jAN-69" target="abfaj3LT7T33ILpD5jAN-62">
          <mxGeometry relative="1" as="geometry" />
        </mxCell>
        <mxCell id="abfaj3LT7T33ILpD5jAN-69" value="Виводимо&amp;nbsp;&lt;div&gt;список книг&lt;/div&gt;" style="shape=parallelogram;perimeter=parallelogramPerimeter;whiteSpace=wrap;html=1;fixedSize=1;" vertex="1" parent="1">
          <mxGeometry x="510" y="185" width="120" height="60" as="geometry" />
        </mxCell>
        <mxCell id="abfaj3LT7T33ILpD5jAN-77" value="" style="edgeStyle=orthogonalEdgeStyle;rounded=0;orthogonalLoop=1;jettySize=auto;html=1;" edge="1" parent="1" source="abfaj3LT7T33ILpD5jAN-72" target="abfaj3LT7T33ILpD5jAN-76">
          <mxGeometry relative="1" as="geometry" />
        </mxCell>
        <mxCell id="abfaj3LT7T33ILpD5jAN-72" value="Виводимо тількі ті книги що&amp;nbsp;&lt;div&gt;доступні, або вже були віддані, в залежності&amp;nbsp;&lt;span style=&quot;background-color: initial;&quot;&gt;від того яке значення&amp;nbsp;&lt;/span&gt;&lt;/div&gt;&lt;div&gt;&lt;span style=&quot;background-color: initial;&quot;&gt;має isAvailable&lt;/span&gt;&lt;/div&gt;" style="shape=parallelogram;perimeter=parallelogramPerimeter;whiteSpace=wrap;html=1;fixedSize=1;" vertex="1" parent="1">
          <mxGeometry x="700" y="205" width="230" height="75" as="geometry" />
        </mxCell>
        <mxCell id="abfaj3LT7T33ILpD5jAN-78" style="edgeStyle=orthogonalEdgeStyle;rounded=0;orthogonalLoop=1;jettySize=auto;html=1;entryX=0.5;entryY=0;entryDx=0;entryDy=0;" edge="1" parent="1" source="abfaj3LT7T33ILpD5jAN-76" target="abfaj3LT7T33ILpD5jAN-68">
          <mxGeometry relative="1" as="geometry" />
        </mxCell>
        <mxCell id="abfaj3LT7T33ILpD5jAN-82" value="Так" style="edgeLabel;html=1;align=center;verticalAlign=middle;resizable=0;points=[];" vertex="1" connectable="0" parent="abfaj3LT7T33ILpD5jAN-78">
          <mxGeometry x="-0.5333" y="-2" relative="1" as="geometry">
            <mxPoint x="-3" y="2" as="offset" />
          </mxGeometry>
        </mxCell>
        <mxCell id="abfaj3LT7T33ILpD5jAN-80" style="edgeStyle=orthogonalEdgeStyle;rounded=0;orthogonalLoop=1;jettySize=auto;html=1;entryX=0.5;entryY=0;entryDx=0;entryDy=0;" edge="1" parent="1" source="abfaj3LT7T33ILpD5jAN-76" target="abfaj3LT7T33ILpD5jAN-79">
          <mxGeometry relative="1" as="geometry">
            <Array as="points">
              <mxPoint x="940" y="370" />
            </Array>
          </mxGeometry>
        </mxCell>
        <mxCell id="abfaj3LT7T33ILpD5jAN-81" value="Ні" style="edgeLabel;html=1;align=center;verticalAlign=middle;resizable=0;points=[];" vertex="1" connectable="0" parent="abfaj3LT7T33ILpD5jAN-80">
          <mxGeometry x="-0.5961" y="1" relative="1" as="geometry">
            <mxPoint as="offset" />
          </mxGeometry>
        </mxCell>
        <mxCell id="abfaj3LT7T33ILpD5jAN-76" value="Щось було виведено?" style="rhombus;whiteSpace=wrap;html=1;" vertex="1" parent="1">
          <mxGeometry x="755" y="315" width="120" height="110" as="geometry" />
        </mxCell>
        <mxCell id="abfaj3LT7T33ILpD5jAN-79" value="return false" style="ellipse;whiteSpace=wrap;html=1;" vertex="1" parent="1">
          <mxGeometry x="875" y="455" width="130" height="50" as="geometry" />
        </mxCell>
        <mxCell id="abfaj3LT7T33ILpD5jAN-83" value="&lt;font style=&quot;font-size: 24px;&quot;&gt;Books borrowing functions&lt;/font&gt;" style="text;html=1;align=center;verticalAlign=middle;resizable=0;points=[];autosize=1;strokeColor=none;fillColor=none;" vertex="1" parent="1">
          <mxGeometry x="1335" y="25" width="300" height="40" as="geometry" />
        </mxCell>
        <mxCell id="abfaj3LT7T33ILpD5jAN-90" value="" style="edgeStyle=orthogonalEdgeStyle;rounded=0;orthogonalLoop=1;jettySize=auto;html=1;" edge="1" parent="1" source="abfaj3LT7T33ILpD5jAN-85" target="abfaj3LT7T33ILpD5jAN-89">
          <mxGeometry relative="1" as="geometry" />
        </mxCell>
        <mxCell id="abfaj3LT7T33ILpD5jAN-85" value="borrowBook(books, booksAvailability)" style="ellipse;whiteSpace=wrap;html=1;" vertex="1" parent="1">
          <mxGeometry x="1180" y="102.5" width="140" height="50" as="geometry" />
        </mxCell>
        <mxCell id="abfaj3LT7T33ILpD5jAN-92" value="" style="edgeStyle=orthogonalEdgeStyle;rounded=0;orthogonalLoop=1;jettySize=auto;html=1;" edge="1" parent="1" source="abfaj3LT7T33ILpD5jAN-89" target="abfaj3LT7T33ILpD5jAN-91">
          <mxGeometry relative="1" as="geometry" />
        </mxCell>
        <mxCell id="abfaj3LT7T33ILpD5jAN-89" value="showBooksListAvailability(books, booksAvailability, true)" style="shape=process;whiteSpace=wrap;html=1;backgroundOutline=1;" vertex="1" parent="1">
          <mxGeometry x="1135" y="195" width="230" height="60" as="geometry" />
        </mxCell>
        <mxCell id="abfaj3LT7T33ILpD5jAN-94" style="edgeStyle=orthogonalEdgeStyle;rounded=0;orthogonalLoop=1;jettySize=auto;html=1;entryX=0.5;entryY=0;entryDx=0;entryDy=0;" edge="1" parent="1" source="abfaj3LT7T33ILpD5jAN-91" target="abfaj3LT7T33ILpD5jAN-93">
          <mxGeometry relative="1" as="geometry">
            <Array as="points">
              <mxPoint x="1125" y="365" />
            </Array>
          </mxGeometry>
        </mxCell>
        <mxCell id="abfaj3LT7T33ILpD5jAN-96" value="Ні" style="edgeLabel;html=1;align=center;verticalAlign=middle;resizable=0;points=[];" vertex="1" connectable="0" parent="abfaj3LT7T33ILpD5jAN-94">
          <mxGeometry x="-0.5728" y="-2" relative="1" as="geometry">
            <mxPoint as="offset" />
          </mxGeometry>
        </mxCell>
        <mxCell id="abfaj3LT7T33ILpD5jAN-100" style="edgeStyle=orthogonalEdgeStyle;rounded=0;orthogonalLoop=1;jettySize=auto;html=1;entryX=0.5;entryY=0;entryDx=0;entryDy=0;" edge="1" parent="1" source="abfaj3LT7T33ILpD5jAN-91" target="abfaj3LT7T33ILpD5jAN-99">
          <mxGeometry relative="1" as="geometry" />
        </mxCell>
        <mxCell id="abfaj3LT7T33ILpD5jAN-101" value="Так" style="edgeLabel;html=1;align=center;verticalAlign=middle;resizable=0;points=[];" vertex="1" connectable="0" parent="abfaj3LT7T33ILpD5jAN-100">
          <mxGeometry x="-0.4824" y="2" relative="1" as="geometry">
            <mxPoint as="offset" />
          </mxGeometry>
        </mxCell>
        <mxCell id="abfaj3LT7T33ILpD5jAN-91" value="В бібліотеці ще залишились книги?" style="rhombus;whiteSpace=wrap;html=1;" vertex="1" parent="1">
          <mxGeometry x="1175" y="290" width="150" height="155" as="geometry" />
        </mxCell>
        <mxCell id="abfaj3LT7T33ILpD5jAN-98" value="" style="edgeStyle=orthogonalEdgeStyle;rounded=0;orthogonalLoop=1;jettySize=auto;html=1;" edge="1" parent="1" source="abfaj3LT7T33ILpD5jAN-93" target="abfaj3LT7T33ILpD5jAN-97">
          <mxGeometry relative="1" as="geometry" />
        </mxCell>
        <mxCell id="abfaj3LT7T33ILpD5jAN-93" value="Виводимо&amp;nbsp;&lt;div&gt;повідомлення про те,&amp;nbsp;&lt;/div&gt;&lt;div&gt;що книг не&amp;nbsp;&lt;/div&gt;&lt;div&gt;залишилось&lt;/div&gt;" style="shape=parallelogram;perimeter=parallelogramPerimeter;whiteSpace=wrap;html=1;fixedSize=1;" vertex="1" parent="1">
          <mxGeometry x="1045" y="445" width="160" height="60" as="geometry" />
        </mxCell>
        <mxCell id="abfaj3LT7T33ILpD5jAN-97" value="return" style="ellipse;whiteSpace=wrap;html=1;" vertex="1" parent="1">
          <mxGeometry x="1060" y="550" width="130" height="50" as="geometry" />
        </mxCell>
        <mxCell id="abfaj3LT7T33ILpD5jAN-104" value="" style="edgeStyle=orthogonalEdgeStyle;rounded=0;orthogonalLoop=1;jettySize=auto;html=1;" edge="1" parent="1" source="abfaj3LT7T33ILpD5jAN-99" target="abfaj3LT7T33ILpD5jAN-103">
          <mxGeometry relative="1" as="geometry" />
        </mxCell>
        <mxCell id="abfaj3LT7T33ILpD5jAN-99" value="Просимо користувача&amp;nbsp;&lt;div&gt;обрати книгу, яку він хоче позичити&lt;/div&gt;" style="shape=parallelogram;perimeter=parallelogramPerimeter;whiteSpace=wrap;html=1;fixedSize=1;" vertex="1" parent="1">
          <mxGeometry x="1335" y="455" width="170" height="60" as="geometry" />
        </mxCell>
        <mxCell id="abfaj3LT7T33ILpD5jAN-106" value="" style="edgeStyle=orthogonalEdgeStyle;rounded=0;orthogonalLoop=1;jettySize=auto;html=1;" edge="1" parent="1" source="abfaj3LT7T33ILpD5jAN-103" target="abfaj3LT7T33ILpD5jAN-105">
          <mxGeometry relative="1" as="geometry" />
        </mxCell>
        <mxCell id="abfaj3LT7T33ILpD5jAN-103" value="Змінюємо доступність обраної книги на false" style="rounded=1;whiteSpace=wrap;html=1;" vertex="1" parent="1">
          <mxGeometry x="1357.5" y="565" width="125" height="50" as="geometry" />
        </mxCell>
        <mxCell id="abfaj3LT7T33ILpD5jAN-105" value="return" style="ellipse;whiteSpace=wrap;html=1;" vertex="1" parent="1">
          <mxGeometry x="1355" y="655" width="130" height="50" as="geometry" />
        </mxCell>
        <mxCell id="abfaj3LT7T33ILpD5jAN-107" value="" style="edgeStyle=orthogonalEdgeStyle;rounded=0;orthogonalLoop=1;jettySize=auto;html=1;" edge="1" parent="1" source="abfaj3LT7T33ILpD5jAN-108" target="abfaj3LT7T33ILpD5jAN-110">
          <mxGeometry relative="1" as="geometry" />
        </mxCell>
        <mxCell id="abfaj3LT7T33ILpD5jAN-108" value="returnBook(books, booksAvailability)" style="ellipse;whiteSpace=wrap;html=1;" vertex="1" parent="1">
          <mxGeometry x="1680" y="102.5" width="140" height="50" as="geometry" />
        </mxCell>
        <mxCell id="abfaj3LT7T33ILpD5jAN-109" value="" style="edgeStyle=orthogonalEdgeStyle;rounded=0;orthogonalLoop=1;jettySize=auto;html=1;" edge="1" parent="1" source="abfaj3LT7T33ILpD5jAN-110" target="abfaj3LT7T33ILpD5jAN-115">
          <mxGeometry relative="1" as="geometry" />
        </mxCell>
        <mxCell id="abfaj3LT7T33ILpD5jAN-110" value="showBooksListAvailability(books, booksAvailability, false)" style="shape=process;whiteSpace=wrap;html=1;backgroundOutline=1;" vertex="1" parent="1">
          <mxGeometry x="1635" y="195" width="230" height="60" as="geometry" />
        </mxCell>
        <mxCell id="abfaj3LT7T33ILpD5jAN-111" style="edgeStyle=orthogonalEdgeStyle;rounded=0;orthogonalLoop=1;jettySize=auto;html=1;entryX=0.5;entryY=0;entryDx=0;entryDy=0;" edge="1" parent="1" source="abfaj3LT7T33ILpD5jAN-115" target="abfaj3LT7T33ILpD5jAN-117">
          <mxGeometry relative="1" as="geometry">
            <Array as="points">
              <mxPoint x="1625" y="365" />
            </Array>
          </mxGeometry>
        </mxCell>
        <mxCell id="abfaj3LT7T33ILpD5jAN-112" value="Ні" style="edgeLabel;html=1;align=center;verticalAlign=middle;resizable=0;points=[];" vertex="1" connectable="0" parent="abfaj3LT7T33ILpD5jAN-111">
          <mxGeometry x="-0.5728" y="-2" relative="1" as="geometry">
            <mxPoint as="offset" />
          </mxGeometry>
        </mxCell>
        <mxCell id="abfaj3LT7T33ILpD5jAN-113" style="edgeStyle=orthogonalEdgeStyle;rounded=0;orthogonalLoop=1;jettySize=auto;html=1;entryX=0.5;entryY=0;entryDx=0;entryDy=0;" edge="1" parent="1" source="abfaj3LT7T33ILpD5jAN-115" target="abfaj3LT7T33ILpD5jAN-120">
          <mxGeometry relative="1" as="geometry" />
        </mxCell>
        <mxCell id="abfaj3LT7T33ILpD5jAN-114" value="Так" style="edgeLabel;html=1;align=center;verticalAlign=middle;resizable=0;points=[];" vertex="1" connectable="0" parent="abfaj3LT7T33ILpD5jAN-113">
          <mxGeometry x="-0.4824" y="2" relative="1" as="geometry">
            <mxPoint as="offset" />
          </mxGeometry>
        </mxCell>
        <mxCell id="abfaj3LT7T33ILpD5jAN-115" value="У користувача є&amp;nbsp;&lt;div&gt;позичені книги?&lt;/div&gt;" style="rhombus;whiteSpace=wrap;html=1;" vertex="1" parent="1">
          <mxGeometry x="1675" y="290" width="150" height="155" as="geometry" />
        </mxCell>
        <mxCell id="abfaj3LT7T33ILpD5jAN-116" value="" style="edgeStyle=orthogonalEdgeStyle;rounded=0;orthogonalLoop=1;jettySize=auto;html=1;" edge="1" parent="1" source="abfaj3LT7T33ILpD5jAN-117" target="abfaj3LT7T33ILpD5jAN-118">
          <mxGeometry relative="1" as="geometry" />
        </mxCell>
        <mxCell id="abfaj3LT7T33ILpD5jAN-117" value="Виводимо&amp;nbsp;&lt;div&gt;повідомлення про те,&amp;nbsp;&lt;/div&gt;&lt;div&gt;що у користувача немає позичених книг&lt;/div&gt;" style="shape=parallelogram;perimeter=parallelogramPerimeter;whiteSpace=wrap;html=1;fixedSize=1;" vertex="1" parent="1">
          <mxGeometry x="1540" y="445" width="170" height="60" as="geometry" />
        </mxCell>
        <mxCell id="abfaj3LT7T33ILpD5jAN-118" value="return" style="ellipse;whiteSpace=wrap;html=1;" vertex="1" parent="1">
          <mxGeometry x="1560" y="550" width="130" height="50" as="geometry" />
        </mxCell>
        <mxCell id="abfaj3LT7T33ILpD5jAN-119" value="" style="edgeStyle=orthogonalEdgeStyle;rounded=0;orthogonalLoop=1;jettySize=auto;html=1;" edge="1" parent="1" source="abfaj3LT7T33ILpD5jAN-120" target="abfaj3LT7T33ILpD5jAN-122">
          <mxGeometry relative="1" as="geometry" />
        </mxCell>
        <mxCell id="abfaj3LT7T33ILpD5jAN-120" value="Просимо користувача&amp;nbsp;&lt;div&gt;обрати книгу, яку він хоче повернути&lt;/div&gt;" style="shape=parallelogram;perimeter=parallelogramPerimeter;whiteSpace=wrap;html=1;fixedSize=1;" vertex="1" parent="1">
          <mxGeometry x="1835" y="455" width="170" height="60" as="geometry" />
        </mxCell>
        <mxCell id="abfaj3LT7T33ILpD5jAN-121" value="" style="edgeStyle=orthogonalEdgeStyle;rounded=0;orthogonalLoop=1;jettySize=auto;html=1;" edge="1" parent="1" source="abfaj3LT7T33ILpD5jAN-122" target="abfaj3LT7T33ILpD5jAN-123">
          <mxGeometry relative="1" as="geometry" />
        </mxCell>
        <mxCell id="abfaj3LT7T33ILpD5jAN-122" value="Змінюємо доступність обраної книги на true" style="rounded=1;whiteSpace=wrap;html=1;" vertex="1" parent="1">
          <mxGeometry x="1857.5" y="565" width="125" height="50" as="geometry" />
        </mxCell>
        <mxCell id="abfaj3LT7T33ILpD5jAN-123" value="return" style="ellipse;whiteSpace=wrap;html=1;" vertex="1" parent="1">
          <mxGeometry x="1855" y="655" width="130" height="50" as="geometry" />
        </mxCell>
        <mxCell id="abfaj3LT7T33ILpD5jAN-127" style="edgeStyle=orthogonalEdgeStyle;rounded=0;orthogonalLoop=1;jettySize=auto;html=1;entryX=0.5;entryY=0;entryDx=0;entryDy=0;" edge="1" parent="1" source="abfaj3LT7T33ILpD5jAN-124" target="abfaj3LT7T33ILpD5jAN-126">
          <mxGeometry relative="1" as="geometry" />
        </mxCell>
        <mxCell id="abfaj3LT7T33ILpD5jAN-124" value="Питаємо яку операцію хоче виконати користувач" style="shape=parallelogram;perimeter=parallelogramPerimeter;whiteSpace=wrap;html=1;fixedSize=1;" vertex="1" parent="1">
          <mxGeometry x="92.5" y="200" width="185" height="60" as="geometry" />
        </mxCell>
        <mxCell id="abfaj3LT7T33ILpD5jAN-129" style="edgeStyle=orthogonalEdgeStyle;rounded=0;orthogonalLoop=1;jettySize=auto;html=1;entryX=1;entryY=0.5;entryDx=0;entryDy=0;" edge="1" parent="1" source="abfaj3LT7T33ILpD5jAN-126" target="abfaj3LT7T33ILpD5jAN-128">
          <mxGeometry relative="1" as="geometry" />
        </mxCell>
        <mxCell id="abfaj3LT7T33ILpD5jAN-130" value="Так" style="edgeLabel;html=1;align=center;verticalAlign=middle;resizable=0;points=[];" vertex="1" connectable="0" parent="abfaj3LT7T33ILpD5jAN-129">
          <mxGeometry x="0.1123" y="1" relative="1" as="geometry">
            <mxPoint as="offset" />
          </mxGeometry>
        </mxCell>
        <mxCell id="abfaj3LT7T33ILpD5jAN-135" value="" style="edgeStyle=orthogonalEdgeStyle;rounded=0;orthogonalLoop=1;jettySize=auto;html=1;" edge="1" parent="1" source="abfaj3LT7T33ILpD5jAN-126" target="abfaj3LT7T33ILpD5jAN-131">
          <mxGeometry relative="1" as="geometry" />
        </mxCell>
        <mxCell id="abfaj3LT7T33ILpD5jAN-136" value="Ні" style="edgeLabel;html=1;align=center;verticalAlign=middle;resizable=0;points=[];" vertex="1" connectable="0" parent="abfaj3LT7T33ILpD5jAN-135">
          <mxGeometry x="-0.312" y="2" relative="1" as="geometry">
            <mxPoint as="offset" />
          </mxGeometry>
        </mxCell>
        <mxCell id="abfaj3LT7T33ILpD5jAN-126" value="Корстувач&amp;nbsp;&lt;div&gt;хоче подивитись список книг?&lt;/div&gt;" style="rhombus;whiteSpace=wrap;html=1;" vertex="1" parent="1">
          <mxGeometry x="117.5" y="310" width="135" height="130" as="geometry" />
        </mxCell>
        <mxCell id="abfaj3LT7T33ILpD5jAN-149" style="edgeStyle=orthogonalEdgeStyle;rounded=0;orthogonalLoop=1;jettySize=auto;html=1;" edge="1" parent="1" source="abfaj3LT7T33ILpD5jAN-128">
          <mxGeometry relative="1" as="geometry">
            <mxPoint x="-230" y="840" as="targetPoint" />
          </mxGeometry>
        </mxCell>
        <mxCell id="abfaj3LT7T33ILpD5jAN-128" value="showBooksList(books)" style="shape=process;whiteSpace=wrap;html=1;backgroundOutline=1;" vertex="1" parent="1">
          <mxGeometry x="-110" y="345" width="170" height="60" as="geometry" />
        </mxCell>
        <mxCell id="abfaj3LT7T33ILpD5jAN-133" value="" style="edgeStyle=orthogonalEdgeStyle;rounded=0;orthogonalLoop=1;jettySize=auto;html=1;" edge="1" parent="1" source="abfaj3LT7T33ILpD5jAN-131" target="abfaj3LT7T33ILpD5jAN-132">
          <mxGeometry relative="1" as="geometry" />
        </mxCell>
        <mxCell id="abfaj3LT7T33ILpD5jAN-134" value="Так" style="edgeLabel;html=1;align=center;verticalAlign=middle;resizable=0;points=[];" vertex="1" connectable="0" parent="abfaj3LT7T33ILpD5jAN-133">
          <mxGeometry x="-0.0379" y="-2" relative="1" as="geometry">
            <mxPoint as="offset" />
          </mxGeometry>
        </mxCell>
        <mxCell id="abfaj3LT7T33ILpD5jAN-131" value="Корстувач&amp;nbsp;&lt;div&gt;вирішив позичити книгу?&lt;/div&gt;" style="rhombus;whiteSpace=wrap;html=1;" vertex="1" parent="1">
          <mxGeometry x="117.5" y="490" width="135" height="130" as="geometry" />
        </mxCell>
        <mxCell id="abfaj3LT7T33ILpD5jAN-148" style="edgeStyle=orthogonalEdgeStyle;rounded=0;orthogonalLoop=1;jettySize=auto;html=1;entryX=0.5;entryY=0;entryDx=0;entryDy=0;" edge="1" parent="1" source="abfaj3LT7T33ILpD5jAN-132" target="abfaj3LT7T33ILpD5jAN-146">
          <mxGeometry relative="1" as="geometry" />
        </mxCell>
        <mxCell id="abfaj3LT7T33ILpD5jAN-132" value="borrowBook(books, booksAvailability)" style="shape=process;whiteSpace=wrap;html=1;backgroundOutline=1;" vertex="1" parent="1">
          <mxGeometry x="-110" y="525" width="170" height="60" as="geometry" />
        </mxCell>
        <mxCell id="abfaj3LT7T33ILpD5jAN-137" value="" style="edgeStyle=orthogonalEdgeStyle;rounded=0;orthogonalLoop=1;jettySize=auto;html=1;" edge="1" parent="1" target="abfaj3LT7T33ILpD5jAN-141">
          <mxGeometry relative="1" as="geometry">
            <mxPoint x="185" y="620" as="sourcePoint" />
          </mxGeometry>
        </mxCell>
        <mxCell id="abfaj3LT7T33ILpD5jAN-138" value="Ні" style="edgeLabel;html=1;align=center;verticalAlign=middle;resizable=0;points=[];" vertex="1" connectable="0" parent="abfaj3LT7T33ILpD5jAN-137">
          <mxGeometry x="-0.312" y="2" relative="1" as="geometry">
            <mxPoint as="offset" />
          </mxGeometry>
        </mxCell>
        <mxCell id="abfaj3LT7T33ILpD5jAN-139" value="" style="edgeStyle=orthogonalEdgeStyle;rounded=0;orthogonalLoop=1;jettySize=auto;html=1;" edge="1" parent="1" source="abfaj3LT7T33ILpD5jAN-141" target="abfaj3LT7T33ILpD5jAN-142">
          <mxGeometry relative="1" as="geometry" />
        </mxCell>
        <mxCell id="abfaj3LT7T33ILpD5jAN-140" value="Так" style="edgeLabel;html=1;align=center;verticalAlign=middle;resizable=0;points=[];" vertex="1" connectable="0" parent="abfaj3LT7T33ILpD5jAN-139">
          <mxGeometry x="-0.0379" y="-2" relative="1" as="geometry">
            <mxPoint as="offset" />
          </mxGeometry>
        </mxCell>
        <mxCell id="abfaj3LT7T33ILpD5jAN-150" style="edgeStyle=orthogonalEdgeStyle;rounded=0;orthogonalLoop=1;jettySize=auto;html=1;entryX=1;entryY=0.5;entryDx=0;entryDy=0;" edge="1" parent="1" source="abfaj3LT7T33ILpD5jAN-141" target="abfaj3LT7T33ILpD5jAN-124">
          <mxGeometry relative="1" as="geometry">
            <Array as="points">
              <mxPoint x="380" y="735" />
              <mxPoint x="380" y="230" />
            </Array>
          </mxGeometry>
        </mxCell>
        <mxCell id="abfaj3LT7T33ILpD5jAN-151" value="Ні" style="edgeLabel;html=1;align=center;verticalAlign=middle;resizable=0;points=[];" vertex="1" connectable="0" parent="abfaj3LT7T33ILpD5jAN-150">
          <mxGeometry x="-0.9044" y="4" relative="1" as="geometry">
            <mxPoint y="4" as="offset" />
          </mxGeometry>
        </mxCell>
        <mxCell id="abfaj3LT7T33ILpD5jAN-141" value="Корстувач&amp;nbsp;&lt;div&gt;вирішив повернути книгу?&lt;/div&gt;" style="rhombus;whiteSpace=wrap;html=1;" vertex="1" parent="1">
          <mxGeometry x="117.5" y="670" width="135" height="130" as="geometry" />
        </mxCell>
        <mxCell id="abfaj3LT7T33ILpD5jAN-147" style="edgeStyle=orthogonalEdgeStyle;rounded=0;orthogonalLoop=1;jettySize=auto;html=1;entryX=0.5;entryY=0;entryDx=0;entryDy=0;" edge="1" parent="1" source="abfaj3LT7T33ILpD5jAN-142" target="abfaj3LT7T33ILpD5jAN-146">
          <mxGeometry relative="1" as="geometry" />
        </mxCell>
        <mxCell id="abfaj3LT7T33ILpD5jAN-142" value="returnBook(books, booksAvailability)" style="shape=process;whiteSpace=wrap;html=1;backgroundOutline=1;" vertex="1" parent="1">
          <mxGeometry x="-110" y="705" width="170" height="60" as="geometry" />
        </mxCell>
        <mxCell id="abfaj3LT7T33ILpD5jAN-153" value="" style="edgeStyle=orthogonalEdgeStyle;rounded=0;orthogonalLoop=1;jettySize=auto;html=1;" edge="1" parent="1" source="abfaj3LT7T33ILpD5jAN-146" target="abfaj3LT7T33ILpD5jAN-152">
          <mxGeometry relative="1" as="geometry" />
        </mxCell>
        <mxCell id="abfaj3LT7T33ILpD5jAN-146" value="Питаємо чи хоче користувач продовжити роботу з програмою" style="shape=parallelogram;perimeter=parallelogramPerimeter;whiteSpace=wrap;html=1;fixedSize=1;" vertex="1" parent="1">
          <mxGeometry x="-310" y="840" width="160" height="60" as="geometry" />
        </mxCell>
        <mxCell id="abfaj3LT7T33ILpD5jAN-154" style="edgeStyle=orthogonalEdgeStyle;rounded=0;orthogonalLoop=1;jettySize=auto;html=1;entryX=0;entryY=0.5;entryDx=0;entryDy=0;" edge="1" parent="1" source="abfaj3LT7T33ILpD5jAN-152" target="abfaj3LT7T33ILpD5jAN-124">
          <mxGeometry relative="1" as="geometry">
            <Array as="points">
              <mxPoint x="-330" y="1005" />
              <mxPoint x="-330" y="230" />
            </Array>
          </mxGeometry>
        </mxCell>
        <mxCell id="abfaj3LT7T33ILpD5jAN-155" value="Так" style="edgeLabel;html=1;align=center;verticalAlign=middle;resizable=0;points=[];" vertex="1" connectable="0" parent="abfaj3LT7T33ILpD5jAN-154">
          <mxGeometry x="-0.9744" y="-2" relative="1" as="geometry">
            <mxPoint as="offset" />
          </mxGeometry>
        </mxCell>
        <mxCell id="abfaj3LT7T33ILpD5jAN-157" value="" style="edgeStyle=orthogonalEdgeStyle;rounded=0;orthogonalLoop=1;jettySize=auto;html=1;" edge="1" parent="1" source="abfaj3LT7T33ILpD5jAN-152" target="abfaj3LT7T33ILpD5jAN-156">
          <mxGeometry relative="1" as="geometry" />
        </mxCell>
        <mxCell id="abfaj3LT7T33ILpD5jAN-158" value="Ні" style="edgeLabel;html=1;align=center;verticalAlign=middle;resizable=0;points=[];" vertex="1" connectable="0" parent="abfaj3LT7T33ILpD5jAN-157">
          <mxGeometry x="-0.4857" y="-1" relative="1" as="geometry">
            <mxPoint y="-1" as="offset" />
          </mxGeometry>
        </mxCell>
        <mxCell id="abfaj3LT7T33ILpD5jAN-152" value="Користувач&amp;nbsp;&lt;div&gt;обрав продовжити&amp;nbsp;&lt;div&gt;роботу?&lt;/div&gt;&lt;/div&gt;" style="rhombus;whiteSpace=wrap;html=1;" vertex="1" parent="1">
          <mxGeometry x="-295" y="940" width="130" height="130" as="geometry" />
        </mxCell>
        <mxCell id="abfaj3LT7T33ILpD5jAN-156" value="Кінець" style="ellipse;whiteSpace=wrap;html=1;" vertex="1" parent="1">
          <mxGeometry x="-60" y="980" width="120" height="50" as="geometry" />
        </mxCell>
      </root>
    </mxGraphModel>
  </diagram>
</mxfile>
